<?xml version="1.0" encoding="utf-8"?>
<!-- Generator: Adobe Illustrator 24.0.3, SVG Export Plug-In . SVG Version: 6.00 Build 0)  -->
<svg version="1.1" xmlns="http://www.w3.org/2000/svg" xmlns:xlink="http://www.w3.org/1999/xlink" x="0px" y="0px"
	 viewBox="0 0 1137.5 856.2" style="enable-background:new 0 0 1137.5 856.2;" xml:space="preserve">
<style type="text/css">
	.st0{fill:url(#SVGID_1_);}
	.st1{opacity:0.2;fill:#330C29;}
	.st2{fill:#FCF2F0;}
	.st3{fill:#1C323F;}
	.st4{fill:#330C29;}
	.st5{fill:#77D5D8;}
	.st6{fill:#F1DDD7;}
	.st7{fill:#3D5D6B;}
	.st8{fill:#2B4A5E;}
	.st9{fill:none;stroke:#FF3000;stroke-miterlimit:10;}
	.st10{fill:#F09B9B;}
	.st11{fill:none;stroke:#D35E71;stroke-linecap:round;stroke-miterlimit:10;}
	.st12{fill:none;stroke:#F1DDD7;stroke-linecap:round;stroke-miterlimit:10;}
	.st13{fill:#A66664;}
	.st14{fill:#8A4E53;}
	.st15{fill:#45ACAF;}
	.st16{fill:#D35E71;}
	.st17{fill:none;stroke:#F1DDD7;stroke-width:2;stroke-linecap:round;stroke-miterlimit:10;}
	.st18{fill:none;stroke:#3D5D6B;stroke-width:2;stroke-linecap:round;stroke-miterlimit:10;}
	.st19{fill:#FFFBFA;}
	.st20{fill:#EAB32A;}
	.st21{fill:#CCB6B0;}
	.st22{fill:#421A39;}
	.st23{fill:#F5E9EF;}
	.st24{fill:#E06E7E;}
	.st25{fill:none;stroke:#8A4E53;stroke-width:5;stroke-linecap:round;stroke-miterlimit:10;}
	.st26{fill:#FCF8FD;}
	.st27{fill:none;stroke:#FF0000;stroke-width:0.5;stroke-miterlimit:10;}
	.st28{fill:none;stroke:#E06E7E;stroke-width:0.5;stroke-linecap:round;stroke-miterlimit:10;}
	.st29{opacity:0.3;fill:#330C29;}
	.st30{opacity:0.44;fill:#F1DDD7;}
	.st31{fill:#7CADD1;}
	.st32{fill:#FFFFFF;}
</style>
<g id="Layer_4">
</g>
<g id="Layer_2">
	<g>
		<g>
			<linearGradient id="SVGID_1_" gradientUnits="userSpaceOnUse" x1="722.2518" y1="107.2685" x2="504.3564" y2="698.4282">
				<stop  offset="0" style="stop-color:#F1DDD7;stop-opacity:0.3"/>
				<stop  offset="0.3176" style="stop-color:#CFCFD5;stop-opacity:0.5223"/>
				<stop  offset="1" style="stop-color:#7CADD1"/>
			</linearGradient>
			<path class="st0" d="M862,742.5c-10.8,3-22,5.8-33.6,8.5c-1.9,0.5-3.9,0.9-5.8,1.3c-59.2,13.5-127.7,23.6-204.1,30
				c-54.5,4.6-106.3,5.7-154.7,3.7c-0.5,0-1,0-1.5-0.1c-3.2-0.1-6.4-0.3-9.6-0.4c-0.6,0-1.3-0.1-1.9-0.1c-1.9-0.1-3.8-0.2-5.7-0.3
				c-0.5,0-1,0-1.4-0.1c-82-4.8-153.9-18.3-212.6-38.2c-0.5-0.2-1-0.3-1.5-0.5c-4-1.4-8-2.8-11.9-4.2c-0.6-0.2-1.2-0.5-1.8-0.7
				c-1.3-0.5-2.6-1-3.8-1.4c-0.5-0.2-1-0.4-1.4-0.6c-5.3-2.1-10.5-4.2-15.6-6.3c-84.9-36.3-134.1-87.6-135-143.9
				C58,467.2,135.7,446,202.4,357.1c66.7-88.9-66.7-130.9-15.6-225.6c51.2-94.8,367.6-3.8,452.7,3.8c85.2,7.5,119.5-72,203.6-58.7
				c34.2,5.4,59.9,24.8,78.3,45.9c27.5,31.6,43,71.9,44.5,113.7c1.6,44.7-39.4,75.4-28,98.8c25.3,52.1,60.9,89.8,112.8,182.6
				C1107.4,618.7,1030.2,696.3,862,742.5z"/>
			<path class="st1" d="M862,742.5c-10.8,3-22,5.8-33.6,8.5c-1.9,0.5-3.9,0.9-5.8,1.3c-59.2,13.5-127.7,23.6-204.1,30
				c-54.5,4.6-106.3,5.7-154.7,3.7c-0.5,0-1,0-1.5-0.1c-3.2-0.1-6.4-0.3-9.6-0.4c-0.6,0-1.3-0.1-1.9-0.1c-1.9-0.1-3.8-0.2-5.7-0.3
				c-0.5,0-1,0-1.4-0.1c-82-4.8-153.9-18.3-212.6-38.2c-0.5-0.2-1-0.3-1.5-0.5c-4-1.4-8-2.8-11.9-4.2c-0.6-0.2-1.2-0.5-1.8-0.7
				c-1.3-0.5-2.6-1-3.8-1.4c-0.5-0.2-1-0.4-1.4-0.6c-5.3-2.1-10.5-4.2-15.6-6.3c-0.6-2.6-0.3-5.1,0.7-7.5
				c16.9-39.2,179-21,272.4-26.2c93.3-5.2,210.6-138.6,265.8-119.7c55.2,18.9,12,92.2,73.6,124.4C835.1,718.5,853.8,731.8,862,742.5
				z"/>
			<path class="st2" d="M799.9,402.9l-193.6-31.8c-2.1-0.3-4.2-0.1-6.1,0.7L134.8,559.4c-1.4,0.6-2.2,1.9-2.2,3.2
				c0,1.2,0.6,2.4,1.8,3c2.2,1.2,5,2.8,8.2,4.6c48.6,27.2,204.4,114.4,248.2,138.9c7,3.9,15.7,3.3,22.1-1.6L795,416.1l6.9-5.2
				C805,408.5,803.8,403.5,799.9,402.9z"/>
			<polygon class="st3" points="468.1,372.3 461.6,443.1 494.2,455.9 526.5,439.2 495,431.1 493.8,367.3 			"/>
			<path class="st4" d="M433.2,503.5l168.5-81c4.3-2.1,9.2-2.7,13.9-1.8l125.1,24.4c2.8,0.6,3.7,4.2,1.4,5.9L603.1,555.5
				c-5.8,4.4-13.4,5.6-20.3,3.3l-149.1-49.2C430.8,508.7,430.5,504.8,433.2,503.5z"/>
			<path class="st3" d="M497.1,476.8l67.6,15.5c1.6,0.4,3.3,0.1,4.7-0.8l66.6-39.9c0.6-0.4,0.5-1.3-0.3-1.5L575,439.3
				c-1.3-0.2-2.7,0-3.9,0.5l-74.2,35.5C496.2,475.6,496.3,476.6,497.1,476.8z"/>
			<path class="st5" d="M493.1,470.9l71.6-34.1c1.7-0.8,2.5-2.8,1.8-4.6l-28.8-69.6c-0.6-1.5-2.3-2.3-3.9-1.9l-77.2,22.1
				c-2.1,0.6-3.1,2.8-2.3,4.8l34.4,81.6C489.4,470.9,491.4,471.7,493.1,470.9z"/>
			<path class="st6" d="M801.9,424.6l-56.4,43L709,495.4l-13.5,10.3l-0.1,0.1L667,527.4l-26.2,20l-19.3,14.8l-63.5,48.4l-100.5,76.7
				l-17.5,13.3l-27.1,20.7c-6.4,4.9-15,5.5-22.1,1.6C344.1,696.7,170,599.3,134.4,579.4c-1.2-0.7-1.8-1.9-1.8-3v-14
				c0,1.2,0.6,2.4,1.8,3c2.2,1.2,5,2.8,8.2,4.6c48.6,27.2,204.4,114.4,248.2,138.9c7,3.9,15.7,3.3,22.1-1.6l26.5-20.2l7.5-5.7
				l106.1-81l0.4-0.3l55.1-42v0l3.8-2.9l100.2-76.5l49.7-37.9l32.9-25.1l4.9,0.8C803.8,417.2,805,422.2,801.9,424.6z"/>
			<path class="st7" d="M561.2,498.7c2.8,0,92.8-55.6,92.8-55.6l41.3,11l-88.7,64.5L561.2,498.7z"/>
			<path class="st8" d="M497.1,474.4l67.6,15.5c1.6,0.4,3.3,0.1,4.7-0.8l66.6-39.9c0.6-0.4,0.5-1.3-0.3-1.5L575,436.9
				c-1.3-0.2-2.7,0-3.9,0.5l-74.2,35.5C496.2,473.2,496.3,474.3,497.1,474.4z"/>
			<path class="st3" d="M495.2,470.9l71.6-34.1c1.7-0.8,2.5-2.8,1.8-4.6l-28.8-69.6c-0.6-1.5-2.3-2.3-3.9-1.9l-77.2,22.1
				c-2.1,0.6-3.1,2.8-2.3,4.8l34.4,81.6C491.6,470.9,493.5,471.7,495.2,470.9z"/>
			<path class="st3" d="M515.5,470.2l54.9-27.5c1.7-0.8,3.6-1.1,5.4-0.8l23.8,4.5c0.7,0.1,0.9,1.1,0.2,1.5l-53.1,28.6
				c-1.8,1-3.9,1.3-5.9,0.8l-25.1-5.6C514.9,471.5,514.8,470.5,515.5,470.2z"/>
			<path class="st3" d="M565.6,470.3l27.7-15.1c1.3-0.7,2.7-0.9,4.1-0.6l16,3.1c0.7,0.1,0.8,1,0.2,1.3l-26.8,15.6
				c-1.3,0.8-2.9,1-4.4,0.7l-16.6-3.6C565.1,471.5,565,470.6,565.6,470.3z"/>
			<polygon class="st3" points="539.5,367.3 461.6,391.4 460.1,387.9 538.4,364.5 			"/>
			<polygon class="st8" points="566.4,432.1 492.9,465.8 461.6,391.4 539.5,367.3 			"/>
			<polygon class="st3" points="540.5,374.5 501.6,387.4 499.9,383.3 538.8,370.6 			"/>
			<polygon class="st2" points="544.7,384.8 506.5,399.1 504.8,395 543.3,381.3 			"/>
			<polygon class="st2" points="563.5,430 526.6,446.9 509.6,406.3 547.7,391.9 			"/>
			<line class="st9" x1="539.6" y1="367.3" x2="539.5" y2="367.3"/>
			<polygon class="st10" points="543.3,381.3 504.8,395 501.6,387.4 540.5,374.5 			"/>
			<polygon class="st10" points="547.7,391.9 509.6,406.3 506.5,399.1 544.7,384.8 			"/>
			<polygon class="st2" points="532.7,379.6 539.5,377.3 540.3,379.4 533.8,381.8 			"/>
			<polygon class="st2" points="538.8,389.8 543.8,388 544.9,391 540.3,392.9 			"/>
			<polygon class="st10" points="512.8,408.8 516.1,416.6 524.4,413 520.7,405.3 			"/>
			<polygon class="st10" points="541,398.1 543.9,404.5 550.3,401.9 547.4,395 			"/>
			<polygon class="st2" points="515.9,409.4 519.1,408.1 521,411.9 517.5,412.9 			"/>
			<polygon class="st2" points="543.8,399.1 544.9,401.3 547.7,400.2 546.2,397.8 			"/>
			<line class="st11" x1="466.9" y1="395.5" x2="496.4" y2="386.1"/>
			<line class="st11" x1="491.5" y1="390.4" x2="496.9" y2="388.5"/>
			<line class="st12" x1="477.2" y1="401.4" x2="498.9" y2="393.9"/>
			<line class="st12" x1="489.3" y1="402.5" x2="500.7" y2="398.4"/>
			<line class="st11" x1="488.1" y1="400.5" x2="499.5" y2="396.4"/>
			<path class="st12" d="M473.5,411.6c0.2-0.1,28.1-10.5,28.1-10.5"/>
			<path class="st11" d="M479.7,422.1c0.2-0.1,28.1-11.5,28.1-11.5"/>
			<path class="st12" d="M480.8,425.2c0.2-0.1,28.1-11.5,28.1-11.5"/>
			<line class="st12" x1="499.5" y1="405" x2="502.4" y2="403.8"/>
			<line class="st12" x1="490.2" y1="425.2" x2="510.1" y2="417.1"/>
			<path class="st3" d="M483.4,431.9c0.3,0,8.9-3.7,8.9-3.7l4.9,11.1l-9.2,3.9L483.4,431.9z"/>
			<path class="st11" d="M503.6,429.8c0.4-0.1,10.4-4.6,10.4-4.6"/>
			<path class="st12" d="M511,431.1c0.3-0.2,4.4-2,4.4-2"/>
			<path class="st12" d="M501.6,440.1c0.2-0.2,15.7-7.1,15.7-7.1"/>
			<path class="st3" d="M583.6,490c0.5-0.7,70.7-44.7,70.7-44.7l30.5,9.1l-16.3,11.4l4.7,2l-57.9,42L583.6,490z"/>
			<polygon class="st7" points="615.3,488.4 628.2,480.2 642.1,484.3 637.2,487.9 631,486 627.1,488.4 633,490.5 629.3,493.4 			"/>
			<path class="st13" d="M627,420.3c0,0.1,0,0.2,0,0.3c0,0,0,0.1,0,0.1c0,0.1,0,0.2-0.1,0.2c0,0.1-0.1,0.3-0.2,0.4
				c-0.1,0.1-0.1,0.2-0.2,0.3c-0.2,0.2-0.4,0.5-0.7,0.7c-2.5-2-8.6-3.5-15.7-3.5c-7.1,0-13.2,1.5-15.7,3.5c-0.8-0.6-1.2-1.3-1.2-2.1
				c0-3.1,7.6-5.6,17-5.6C619.5,414.7,627,417.2,627,420.3z"/>
			<path class="st14" d="M610.1,418.9c-7.1,0-13.2,1.5-15.7,3.5c0.2,0.2,0.5,0.4,0.8,0.6c0.2,0.1,0.3,0.2,0.5,0.3
				c0.1,0.1,0.3,0.1,0.5,0.2c1.2,0.6,2.7,1,4.5,1.4c2.7,0.6,6,1,9.5,1c3.5,0,6.8-0.3,9.5-1c1.7-0.4,3.3-0.9,4.5-1.4
				c0.2-0.1,0.3-0.1,0.4-0.2c0.2-0.1,0.4-0.2,0.5-0.3c0.3-0.2,0.6-0.4,0.8-0.6C623.3,420.3,617.2,418.9,610.1,418.9z"/>
			<path class="st13" d="M627,420.6c0,0,0,0.1,0,0.1c0,0.1,0,0.2-0.1,0.2c0,0.1-0.1,0.3-0.2,0.4c-0.1,0.1-0.1,0.2-0.2,0.3
				c-0.2,0.2-0.4,0.5-0.7,0.7c-0.2,0.2-0.5,0.4-0.8,0.6c-0.2,0.1-0.3,0.2-0.5,0.3c-0.1,0.1-0.3,0.1-0.4,0.2c-1.2,0.6-2.7,1-4.5,1.4
				c-2.7,0.6-6,1-9.5,1c-3.5,0-6.8-0.3-9.5-1c-1.7-0.4-3.3-0.9-4.5-1.4c-0.2-0.1-0.3-0.1-0.5-0.2c-0.2-0.1-0.4-0.2-0.5-0.3
				c-0.3-0.2-0.6-0.4-0.8-0.6c-0.8-0.6-1.2-1.3-1.2-2.1v4.2v0.5h0.1c0.7,2.9,8,5.1,16.9,5.1c8.9,0,16.2-2.2,16.9-5.1
				c0-0.2,0.1-0.3,0.1-0.5v-4.2C627,420.4,627,420.5,627,420.6z"/>
			<path class="st3" d="M278.8,217.8l37.3,210.4c0,0,215.7-77.1,310.9-93.5V212.3C627,212.3,322.4,215.9,278.8,217.8z M623.3,329
				c-58.5,4.6-299,86.9-299,86.9L290.9,230c27.7-3.8,332.3-11.4,332.3-11.4V329z"/>
			<path class="st15" d="M623.3,218.6V329c-58.5,4.6-299,86.9-299,86.9L290.9,230c11.4-1.6,69.3-3.7,133.6-5.8l16.4,147.1
				c0,0,111.2-31.2,125.5-36.2l-6.3-114.8C597.4,219.3,623.3,218.6,623.3,218.6z"/>
			<polygon class="st7" points="426.2,236.8 304.8,242.7 304.1,238.4 425.8,233 			"/>
			<polygon class="st7" points="437.1,342.9 326.8,372.3 321.2,339.3 434.3,315.3 			"/>
			<polygon class="st3" points="434.3,315.3 321.2,339.3 304.8,242.7 426.2,236.8 			"/>
			<path class="st10" d="M560.7,230.7L426,236.8l-1.4-12.6c46.9-1.5,97.3-2.9,135.5-3.9L560.7,230.7z"/>
			<path class="st2" d="M566.4,335.1c-14.3,5.1-125.5,36.2-125.5,36.2l-15-134.5l134.7-6.1L566.4,335.1z"/>
			<polygon class="st3" points="418.6,249.8 367.3,254.4 366.6,249.8 415.5,246.2 418.2,246 			"/>
			<polygon class="st2" points="419.9,261.7 369.1,267.5 368.5,263.4 419.6,258.5 			"/>
			<polygon class="st2" points="425.8,314.9 376.9,324.8 376.4,321.2 370.2,275.7 420.8,269.9 			"/>
			<polygon class="st10" points="419.6,258.5 368.5,263.4 367.3,254.4 418.6,249.8 			"/>
			<polygon class="st10" points="420.8,269.9 370.2,275.7 369.1,267.5 419.9,261.7 			"/>
			<polygon class="st2" points="414.7,256.1 404.5,257.1 404,253.6 414.2,252.6 			"/>
			<polygon class="st2" points="416.8,267.9 406.6,268.9 406.1,265.4 416.3,264.4 			"/>
			<polygon class="st10" points="373.7,278.4 382.7,277.5 384.4,286.6 375.8,287.4 			"/>
			<polygon class="st2" points="376.2,280.1 381.1,279.7 382,284.8 377.3,285.2 			"/>
			<polygon class="st10" points="409.4,273.9 418.8,273 419.9,281.4 411,282.4 			"/>
			<polygon class="st2" points="411.8,275.6 417.1,275.2 417.7,279.7 412.6,280.2 			"/>
			<path class="st16" d="M415.1,243.9c-14,1-82,6.2-96.4,7.4l-0.6-3.8l96.6-6.2L415.1,243.9z"/>
			<path class="st8" d="M370.2,275.7l6.2,45.4l-44.7,10l-13-79.9c14.4-1.2,82.4-6.3,96.4-7.4l0.4,2.3l-48.9,3.6l0.6,4.6l1.2,9.1
				l0.5,4L370.2,275.7z"/>
			<line class="st11" x1="327.5" y1="254.9" x2="362.2" y2="252.1"/>
			<line class="st11" x1="356.3" y1="255.8" x2="362.2" y2="255.4"/>
			<path class="st12" d="M332.8,262.3c0.3-0.2,29.9-2.8,29.9-2.8"/>
			<line class="st11" x1="347.2" y1="264.4" x2="363.4" y2="263"/>
			<line class="st12" x1="347.8" y1="267.9" x2="363.4" y2="266.4"/>
			<line class="st12" x1="326.9" y1="274.9" x2="364.6" y2="271.2"/>
			<line class="st12" x1="360.3" y1="275.7" x2="364.6" y2="275.3"/>
			<line class="st11" x1="331.6" y1="288.9" x2="367.1" y2="284.2"/>
			<line class="st12" x1="342.5" y1="291" x2="367.3" y2="287.9"/>
			<polygon class="st3" points="331.6,297.3 333.5,309.9 345.2,307.5 343.4,295.3 			"/>
			<line class="st12" x1="360.3" y1="293.2" x2="367.3" y2="292.1"/>
			<line class="st11" x1="355.6" y1="299.1" x2="368.1" y2="297.3"/>
			<line class="st12" x1="351.2" y1="304.6" x2="369.6" y2="301.8"/>
			<polygon class="st8" points="359.3,335.3 361.8,355.7 399.9,345.5 396.9,326.4 			"/>
			<polygon class="st8" points="399.9,326.4 402,342.9 417.7,339.3 415.1,322.9 			"/>
			<polyline class="st8" points="417.7,322.9 419.9,339.3 434.3,334.9 431.9,319.1 418.6,322 			"/>
			<line class="st9" x1="426" y1="236.8" x2="425.4" y2="236.8"/>
			<line class="st17" x1="542.8" y1="226.9" x2="554.5" y2="226.5"/>
			<line class="st17" x1="524.2" y1="227.6" x2="537.3" y2="227.1"/>
			<line class="st17" x1="506.7" y1="228.2" x2="519.5" y2="227.7"/>
			<line class="st17" x1="488" y1="228.9" x2="501" y2="228.4"/>
			<line class="st17" x1="467.2" y1="229.6" x2="481.9" y2="229.1"/>
			<line class="st17" x1="438.3" y1="230.7" x2="458.7" y2="229.9"/>
			<line class="st18" x1="494.4" y1="244.3" x2="531.4" y2="240.3"/>
			<path class="st18" d="M524.7,245.2c0.6,0,6.9-1,6.9-1"/>
			<path class="st18" d="M518,252c0.2-0.2,13.8-1.9,13.8-1.9"/>
			<path class="st18" d="M520.9,256c0.5,0,11.2-1.3,11.2-1.3"/>
			<line class="st18" x1="518.5" y1="262.6" x2="532.3" y2="260.8"/>
			<line class="st18" x1="523.5" y1="266.9" x2="532.6" y2="265.7"/>
			<line class="st18" x1="519" y1="272.8" x2="532.8" y2="271.3"/>
			<line class="st18" x1="523.9" y1="277.5" x2="532.4" y2="276.2"/>
			<line class="st18" x1="526.5" y1="285.1" x2="532.8" y2="283.9"/>
			<path class="st18" d="M518.5,293.1c0.8-0.4,16-2.2,16-2.2"/>
			<path class="st18" d="M520.3,300.6c0.5-0.2,14.6-2.4,14.6-2.4"/>
			<path class="st18" d="M520.6,307.1c1.1-0.1,14.6-2.1,14.6-2.1"/>
			<line class="st18" x1="530.4" y1="318" x2="536.3" y2="316.9"/>
			<line class="st18" x1="526.9" y1="325.3" x2="536.6" y2="322.9"/>
			<polygon class="st3" points="341.4,481.4 363.5,487.1 383.7,474.6 361,471.6 			"/>
			<path class="st13" d="M428.9,539.3l-2.1,4.1l-1.9,3.7L414,567.9c-1.3,2.5-3.9,4-6.6,4l-104-1.2l-1.5,0l-1.7,0
				c-1.3,0-2-1.5-1.2-2.5l24.7-29.6L428.9,539.3z"/>
			<path class="st14" d="M424.9,547.1L414,567.9c-1.3,2.5-3.9,4-6.6,4l-104-1.2l-4.4,5.2c-0.8,1-0.1,2.5,1.2,2.5l107.2,1.2
				c2.8,0,5.3-1.5,6.6-4l15-28.6v-7.8L424.9,547.1z"/>
			<path class="st8" d="M358.5,482.3l14.2-7.3c1.1-0.6,1.5-1.9,1-3L357,434.7c-0.6-1.4-2.3-2.1-3.7-1.5l-15.8,6.8
				c-1.2,0.5-1.7,1.9-1.2,3.1l18.3,37.9C355.3,482.5,357.1,483.1,358.5,482.3z"/>
			<path class="st19" d="M427.3,543.3v4.2l-13.1,24.3c-0.7,1.2-1.5,2.3-2.5,3.2l0,0c-1.6,1.5-3.8,2.3-6,2.3l-103.7-0.9v-5.7l1.5,0
				l104,1.2c2.8,0,5.3-1.5,6.6-4l10.9-20.8l1.9-3.7L427.3,543.3z"/>
			<g>
				<path class="st20" d="M416.1,574.6c-0.6,0-1-0.4-1-1v-8.7l-115-0.8c-0.6,0-1-0.5-1-1c0-0.5,0.5-1,1-1c0,0,0,0,0,0l116,0.8
					c0.5,0,1,0.5,1,1v9.7C417.1,574.1,416.6,574.6,416.1,574.6z"/>
			</g>
			<path class="st21" d="M229.5,746.4c-4-1.4-8-2.8-11.9-4.2c-1.9-0.7-3.8-1.4-5.7-2.1c-0.5-0.2-1-0.4-1.4-0.6L205.2,619l18.9,10.5
				L229.5,746.4z"/>
			<path class="st21" d="M462.3,786.1c-3.2-0.1-6.4-0.3-9.6-0.4c-2.6-0.1-5.1-0.3-7.7-0.4c-0.5,0-1,0-1.4-0.1l-3.7-84.5l17.5-13.3
				l0.3,0.2L462.3,786.1z"/>
			<path class="st1" d="M448.3,738c0.4,10.6,1.4,29.5,2.4,47.6c-1.9-0.1-3.8-0.2-5.7-0.3c-0.5,0-1,0-1.4-0.1l-3.7-84.5l17.5-13.3
				l1.4,23.5C458.8,710.8,447.5,713.6,448.3,738z"/>
			<path class="st1" d="M224.1,629.6v17c0,0-13.2-1.3-11.8,29.5c0.7,15.3,2.2,42.3,3.5,65.5c-1.3-0.5-2.6-1-3.8-1.4
				c-0.5-0.2-1-0.4-1.4-0.6L205.2,619L224.1,629.6z"/>
			<polygon class="st22" points="853.8,531.2 844.1,623.3 855.6,614.6 867.6,524.9 			"/>
			<path class="st4" d="M866.9,529.5l-13.4,6c0,0-8.3,77.4-8.2,76.5c0.1-0.8,12.9-66.7,12.9-66.7s0.5-8.1,7.9-9.8L866.9,529.5"/>
			<circle class="st4" cx="651.3" cy="754.5" r="18"/>
			<g>
				<polygon class="st4" points="743.4,652.8 743.4,687.4 755.9,688.3 755.9,652.8 				"/>
				<path class="st22" d="M867,621.6c-5.8,24.7-37.3,31.1-37.3,31.1c-67.7,18-146.3-6-171.3-14.8c-4.9-1.7-8.1-6.3-8.1-11.4v-13.1
					c0-1.9,0.9-3.7,2.4-4.8l11.1-8.3c0,0,154.6-25.7,163.2-23.9c5.5,1.2,22.6,9.2,32.8,21.3C865.5,604.6,869,612.7,867,621.6z"/>
				<path class="st4" d="M796.1,634.8c-57.2,5.9-113.5-12.1-135.8-20.4c-4.4-1.7-5.3-7.5-1.5-10.4l5-3.7c0,0,154.6-25.7,163.2-23.9
					c5.5,1.2,22.6,9.2,32.8,21.3l0,0C859.8,597.8,869.8,627.2,796.1,634.8z"/>
				<g>
					<path class="st4" d="M655.3,755.7l-5.5-2.5c0.2-0.5,6.1-13.2,21.3-28.4c13.9-13.9,38.8-32.8,77.7-43.2
						c31.5-8.4,57.1-7.7,75.9,2.3c14.4,7.6,19.2,17.9,19.4,18.4l-5.5,2.5c0-0.1-4.4-9.1-17.2-15.8c-12-6.2-34.1-11.5-71.2-1.6
						c-37.5,10-61.4,28.1-74.8,41.4C661.1,743.4,655.4,755.6,655.3,755.7z"/>
				</g>
				<g>
					<path class="st4" d="M828.4,751.1c-1.9,0.5-3.9,0.9-5.8,1.3c-3.6-15.5-20.9-38.2-60.7-60.5c-2.4-1.4-4.8-2.6-7.2-3.7
						c-0.8-0.4-1.7-0.8-2.5-1.1c-2.9-1.3-5.8-2.4-8.7-3.3c-0.3-0.1-0.5-0.2-0.8-0.3c-14-4.5-26.9-5.5-36.4-5.3
						c-10.4,0.2-18.4,1.7-23.2,3.1c-2.7,0.8-4.4,1.4-4.9,1.8c0.3-0.2,1-1,0.9-2.3l-6,0.5c-0.1-0.9,0.2-2.2,1.8-3.3
						c0.6-0.4,1.6-0.8,2.9-1.3c9.5-3.5,36.4-8.2,65.7,0.9c3,0.9,6.1,2,9.1,3.3c1.1,0.5,2.2,0.9,3.4,1.4c1.9,0.8,3.7,1.7,5.6,2.7
						c1.1,0.6,2.2,1.2,3.3,1.8C813.2,713.8,825.4,738.7,828.4,751.1z"/>
				</g>
				<circle class="st4" cx="673" cy="687.3" r="11.7"/>
				<circle class="st4" cx="836.5" cy="694" r="12.5"/>
			</g>
			<path class="st8" d="M717.1,511.5l-21.8-5.7l-33.6,25.7c0,0,57,18.7,60.4,7.1S717.1,511.5,717.1,511.5z"/>
			<path class="st20" d="M712.6,510.3c0.3,8.6,0.9,19.4,2.5,23.5l3.9-0.4c0.4,0.2-17.3,1.3-30.2,2.1c5,1.2,10.4,2,15.8,1.7
				c11.2-0.5,28-4.5,42-8.4c13.9-3.9,25.1-7.6,25.1-7.6c0,0,0,0.1,0,0.2c0,0,0,0,0,0.1c-0.7,1.9-1.4,3.9-2.1,6
				c-5.5,15-12.7,33.5-17.1,42.3c-7,14.2-9.8,9.4-19.2,9.4c17.3,4,33.5,7.5,43.8,9.7c2.8,0.6,5.1,2.1,6.8,4.1
				c29.4-4.7,47.2-19.6,56.3-30c16.8-58,42.9-154.9,37-176.5c-6.2-22.8-32-37.5-45.5-43.8c-1.8,1.8-5.2,3.8-11.6,5.3
				c-9.6,2.2-16,2.6-21.7,4.4c-3.5,1.1-6.6,2.6-10,5.4c-9,7.3-32,19.9-32,19.9c-11.7,4.4-19.3,14.5-19.3,14.5
				c-12.6,7-13.6,31.3-14.8,39.8c-0.6,4-1.7,10-3,16.3c-0.8,3.9-1.8,8-2.7,11.6c-0.8,3.1-1.7,5.8-2.5,8.1c-1.8,4.8-1.7,8-1.2,10.8
				c0.5,2.5,1.2,4.8,1.2,7.8c0,6.3-5.1,8.5-5.1,8.5l0.4,0.3l3.4,3.4c0,0-1.3,10.4-2.2,10.4 M718.7,524.2c-0.2-8.5-0.3-20.3,0.2-24.2
				C719,500,718.7,514.3,718.7,524.2z"/>
			<path class="st8" d="M630,702.2c0,0-0.6,0.6-1.7,1.4c-3.9,2.8-14.3,8.4-28.8,2.9c-0.4-0.2-0.9-0.3-1.3-0.5l-3.2-12.6
				c0,0,10,2.3,30.3-1.9L630,702.2z"/>
			<path class="st3" d="M801.8,227.3c-6.1,16.3-18.3,43.4-22,51.5c-1.5-0.5-3-1.1-4.5-1.6c-1.5-0.6-3-1.2-4.5-1.9
				c-0.7-0.3-1.3-0.6-2-0.9c-0.4-0.2-0.9-0.4-1.3-0.6c-0.4-0.2-0.9-0.4-1.3-0.6c-5.8-2.8-10.8-5.9-15.1-9c-0.6-0.4-1.2-0.9-1.8-1.3
				c-0.9-0.7-1.8-1.4-2.6-2.1c-0.3-0.3-0.7-0.5-1-0.8c-0.6-0.5-1.1-1-1.7-1.4c-0.2-0.2-0.4-0.3-0.6-0.5c-2-1.8-3.7-3.5-5.3-5.2
				c-0.9-1-1.8-1.9-2.5-2.8c-1-1.1-1.9-2.2-2.7-3.3c-0.3-0.4-0.7-0.9-1-1.3c-0.4-0.6-0.8-1.1-1.2-1.7c-0.2-0.3-0.4-0.5-0.5-0.8
				c-0.4-0.6-0.8-1.2-1.1-1.8c-0.6-1-1.2-2-1.7-2.9c-0.2-0.3-0.3-0.5-0.4-0.8c-0.7-1.3-1.2-2.4-1.7-3.3c3.5-9.6,9.8-20.8,20.7-29.9
				c18.6-15.4,44.1-13,59.3-8.4c0,0,0,0,0,0C805.3,196.3,808.9,208.3,801.8,227.3z"/>
			<path class="st23" d="M834.9,245c-0.1,0.9-0.2,1.7-0.3,2.5c-2.3,0.6-7.1,1.1-11.2,0.7l-5.5,22.3c0,0,8.4,0.2,13.8-1
				c-1.3,8.6-2,11.8-2.1,12.2c0,0,0,0,0,0l-0.5,0.5c-9.8,3.3-23.3,4.2-41.9-1c-2.6-0.7-5.1-1.5-7.5-2.3c3.7-8.1,15.9-35.2,22-51.5
				c7.1-18.9,3.6-31,3.4-31.4c4.1,1.2,7.5,2.7,9.8,4C825.8,205.8,838.4,215.9,834.9,245z"/>
			<path class="st3" d="M834.6,247.5c-1.2,9.7-2.2,16.8-2.9,21.9c-5.4,1.2-13.8,1-13.8,1l5.5-22.3
				C827.6,248.6,832.3,248,834.6,247.5z"/>
			<path class="st24" d="M757.6,343.9c-2.2-5.3-4.7-11.1-6.7-14.6l-7.3,1.3c3.6-4,8-11.5,10.5-15.9
				C755.9,320.7,757.7,330.2,757.6,343.9z"/>
			<path class="st24" d="M816.6,324.3l2.3,5.5c-20.6,5.4-47.7-37.8-50-41.4c0.2-0.4,0.3-0.7,0.5-1.1c0.2-0.4,0.3-0.7,0.4-1.1
				c0.1-0.2,0.1-0.4,0.2-0.5c0.1-0.2,0.1-0.3,0.2-0.5c0.2-0.5,0.3-0.9,0.4-1.4c0,0,0-0.1,0-0.1c0.1-0.3,0.1-0.5,0.2-0.8
				c0.1-0.4,0.2-0.8,0.2-1.1c0-0.2,0.1-0.4,0.1-0.6c0-0.2,0.1-0.4,0.1-0.6c0,0,0,0,0-0.1c0-0.4,0.1-0.7,0.1-1.1
				c0.1-1.4,0.1-2.7-0.1-4c2.7,1.2,5.5,2.2,8.5,3.3c2.4,0.8,4.9,1.6,7.5,2.3c18.6,5.2,32.1,4.3,41.9,1l-20.4,23.8L816.6,324.3z"/>
			<path class="st10" d="M820.4,333.3c-6.1,2.7-15.4,3.7-23.1,3.9c-12.3,0.3-34.7,19.3-34.7,19.3s-2.2-5.9-5-12.5
				c0.1-13.7-1.7-23.2-3.5-29.2c-2.5,4.4-6.9,12-10.5,15.9l-0.4,0.1c-8.7,1.5-16.8-4.5-17.9-13.2c-1-8.2-2-18.4-2.3-27.4
				c-0.2-4.4-0.1-8.5,0.2-11.9c1.6-18.6,2.5-14.2-2.5-24c0,0,0.5-8.8,4.6-20c0.4,0.9,1,2.1,1.7,3.3c0.1,0.3,0.3,0.5,0.4,0.8
				c0.5,0.9,1.1,1.9,1.7,2.9c0.4,0.6,0.7,1.2,1.1,1.8c0.2,0.3,0.4,0.5,0.5,0.8c0.4,0.5,0.8,1.1,1.2,1.7c0.3,0.4,0.6,0.9,1,1.3
				c0.8,1.1,1.7,2.2,2.7,3.3c0.8,0.9,1.6,1.9,2.5,2.8c1.6,1.7,3.4,3.5,5.3,5.2c0.2,0.2,0.4,0.3,0.6,0.5c0.5,0.5,1.1,1,1.7,1.4
				c0.3,0.3,0.7,0.5,1,0.8c0.9,0.7,1.7,1.4,2.6,2.1c0.6,0.4,1.2,0.9,1.8,1.3c4.3,3.1,9.4,6.2,15.1,9c0.4,0.2,0.9,0.4,1.3,0.6
				c0.5,0.2,0.9,0.4,1.3,0.6c0.6,0.3,1.3,0.6,2,0.9c0.1,0.1,0.3,0.1,0.5,0.2c0.2,1.3,0.2,2.6,0.1,4c0,0.3-0.1,0.7-0.1,1.1
				c0,0,0,0,0,0.1c0,0.2,0,0.4-0.1,0.6c0,0.2-0.1,0.4-0.1,0.6c-0.1,0.4-0.1,0.8-0.2,1.1c-0.1,0.3-0.1,0.5-0.2,0.8c0,0,0,0.1,0,0.1
				c-0.1,0.5-0.2,0.9-0.4,1.4c0,0.2-0.1,0.3-0.2,0.5c-0.1,0.2-0.1,0.4-0.2,0.5c-0.1,0.4-0.3,0.7-0.4,1.1c-0.1,0.4-0.3,0.7-0.5,1.1
				c2.2,3.6,29.4,46.8,50,41.4L820.4,333.3z"/>
			<path class="st7" d="M626.1,690.3C626,690.3,626,690.3,626.1,690.3c-0.8,1.2-0.8,1.2-0.8,1.2c-20.3,4.2-30.3,1.9-30.3,1.9
				s-5.4,0.2-9.9-16.4c17.8,12.7,29.9,10.9,22.5,8.8c-5.2-1.5-16.7-10.4-24.2-16.5c-0.1-0.5-0.2-1-0.3-1.5c0,0-8.2-10.1-14.8-31
				c-2.2-7-4.7-13.4-6.9-18.8c4.9-2.4,12.2-5.1,21.4-6.4c17.9-2.5,24.9,25.1,25.5,39.4c0.6,14.3,12.4,14.9,15.4,16.2
				c2.9,1.3-1.7,16.2-1.3,18.5c0.4,2.3,3.4-7.7,4.8-4.6C628.5,684.2,626.2,690,626.1,690.3z"/>
			<path class="st8" d="M839.9,562.9c-3.7,12.9-7,23.9-9.4,31.7c-2.4,8-7.9,14.7-15.3,18.7l-21.4,11.3c-17.8,9.5-38.6,11.7-58,6.3
				l-133.6-37.1c0,0,12.3,16.1,15.2,45.5c2.8,29.4,9.8,22.4,9.2,31.9c-0.6,9.5,5.7,10.1,2.2,15.2c-1.3,1.9-2.2,3.1-2.7,3.9
				c0.1-0.4,2.4-6.1,1-9.1c-1.5-3.2-4.4,6.8-4.8,4.6c-0.4-2.3,4.2-17.2,1.3-18.5c-3-1.3-14.7-1.9-15.4-16.2
				c-0.6-14.3-7.6-41.9-25.5-39.4c-9.2,1.3-16.5,4-21.4,6.4c-1.2-2.8-2.2-5.3-3.3-7.5L667,527.4c1,0.3,2,0.6,3,0.9
				c8.3,4.3,21.2,9.5,34.5,8.9c11.2-0.5,28-4.5,42-8.4c13.9-3.9,25.1-7.6,25.1-7.6c0,0,0,0.1,0,0.2c0,0,0,0,0,0.1
				c-0.7,1.9-1.4,3.9-2.1,6c-5.5,15-12.7,33.5-17.1,42.3c-7,14.2-9.8,9.4-19.2,9.4c17.3,4,33.5,7.5,43.8,9.7
				c2.8,0.6,5.1,2.1,6.8,4.1C813.1,588.3,830.8,573.4,839.9,562.9z"/>
			<path class="st25" d="M718.7,256.5c0.5,0,7.4,3.3,10.6,5.7"/>
			<path class="st24" d="M724.9,267.2c0,0-2.1,3.2-4.6,6.9c-2.5,3.8-4.1,6-5.8,7.9c-1.7,1.9,0.8,4.9,2.6,5.5
				c1.8,0.6,3.2-0.3,5.8,1.1c2.6,1.4,3.9-2.4,3.4-4.9s-2.7-1.9-2.3-5.7C724.4,274.3,724.9,267.2,724.9,267.2z"/>
			<ellipse class="st3" cx="728.6" cy="270.1" rx="2.2" ry="4.5"/>
			<path class="st10" d="M754.1,297.5c-0.7,0.1-1.4,0.1-1.9,0c-7.6-1.8,0.5-27.4,0.5-27.4s9-10.8,14.2-2.4c0,0,0,0,0,0
				c0.1,0.1,0.2,0.3,0.3,0.4C772.4,277.3,764.8,295.5,754.1,297.5z"/>
			<path class="st24" d="M769,288.5c-2.6,5.8-7.1,10.6-12.4,11.7c-2.4,0.5-3.8-0.6-4.5-2.6c0.5,0.1,1.2,0.2,1.9,0
				c8.6-1.7,15.2-13.7,14.8-23.1c-0.1-2.3-0.6-4.4-1.7-6.2c-0.1-0.2-0.2-0.3-0.3-0.4c1,0.6,2,1.5,2.8,3c0.8,1.4,1.3,3,1.5,4.7
				C771.8,279.5,770.9,284.2,769,288.5z"/>
			<path class="st24" d="M756.6,278.1c0.9-0.4,4.4,1.4,2.3-2.8c-2.1-4.3-1.7-6.8,2.5-8.1s7.4,7.9,4.1,15.6c0,0,0.5-7.6-0.8-10.4
				s-3.8-2.4-3.8-0.6s0.1,4.9,0.8,6.3c0.7,1.4,1.5,9.3-3.8,9.2C752.5,287.1,752.1,279.9,756.6,278.1z"/>
			<path class="st26" d="M761.3,283.8c0,2.4-2,4.4-4.4,4.4c-0.5,0-1-0.1-1.4-0.2c-1.3-0.4-2.4-1.5-2.8-2.8c-0.1-0.4-0.2-0.9-0.2-1.4
				c0-2.4,2-4.4,4.4-4.4S761.3,281.4,761.3,283.8z"/>
			<path class="st23" d="M755.5,288c-2.8,2.7-6.6,6.9-6.6,6.9l-1.6-1.3c0.7-3.5,3.6-6.7,5.4-8.4C753.2,286.5,754.2,287.5,755.5,288z
				"/>
			<path class="st13" d="M754.4,314c-0.1,0.2-0.2,0.4-0.3,0.6c-2.5,4.4-6.9,12-10.5,15.9c-0.7,0.8-1.4,1.4-2,1.9
				c-5.4,4-17.7-4-19.4-14c-1.4-8-1.3-20.9-1.2-25.9c0-1.2,0.8-2.2,1.9-2.5c0.3-0.1,0.5-0.1,0.8-0.1c0.8,0.1,1.5,0.4,1.7,1.4
				c0.5,2.5-0.5,12.6,1.9,9.5c2.4-3.2,8.1-11.4,8.4-17.1c0.3-4.8,3.9-8.9,8.7-10.6c1.1-0.4,2.3,0.7,1.9,1.8
				c-1.6,4.6-4.1,14.7,1,23.2c1.1,1.8,2,3.4,2.9,4.7c1.7,2.8,3,4.6,3.9,5.9C755.2,310.3,755.3,312.4,754.4,314z"/>
			
				<ellipse transform="matrix(0.3201 -0.9474 0.9474 0.3201 362.0104 896.1136)" class="st8" cx="805.3" cy="195.8" rx="3.8" ry="5.6"/>
			<path class="st7" d="M848.5,311.9c0,0-7.3,7.6-30.6,6.6c-6.1-0.2-12.1-3.6-17.7-8.4c-10.8-9.4-20.1-24.3-24.9-33
				c1.5,0.6,2.9,1.1,4.5,1.6c2.4,0.8,4.9,1.6,7.5,2.3c18.6,5.2,32.1,4.3,41.9,1l0.5-0.5c0,0,0,0,0,0
				C835.6,292.9,848.5,311.9,848.5,311.9z"/>
			<path class="st14" d="M800.2,310.1c-10-0.8-16.1-10.1-19.7-16.5c-2.7-4.6-6.6-10.4-9.1-14.1c0.1-1.4,0.1-2.7-0.1-4
				c-0.2-0.1-0.3-0.1-0.5-0.2c1.5,0.6,3,1.2,4.5,1.9C780.1,285.8,789.4,300.7,800.2,310.1z"/>
			<path class="st3" d="M827,326.2c0,0.1,0,0.2,0,0.3c-0.4,3-2.9,5.2-6.5,6.8l-1.5-3.4l-2.3-5.5c4.2-1.5,9.7-2.7,10.3,0.7
				C827,325.4,827,325.8,827,326.2z"/>
			<path class="st27" d="M827,325c0.1,0.3,0.1,0.7,0,1.1"/>
			<path class="st7" d="M831.4,342.6c-1.8,1.8-5.2,3.8-11.6,5.3c-15.3,3.5-22.7,2.5-31.8,9.8c-9,7.3-32,19.9-32,19.9l-1-3.4l-1.9-7
				c-0.1-0.2-0.1-0.4-0.1-0.7c-0.2-1.7,0.5-3.4,1.9-4.5l7.7-5.6c0,0,22.4-19,34.7-19.3c7.7-0.2,17-1.2,23.1-3.9
				c3.6-1.6,6.1-3.8,6.5-6.8c0-0.1,0-0.2,0-0.3c0.6,8.8,6.4,11.6,6.4,11.6S833.9,340.1,831.4,342.6z"/>
			<path class="st27" d="M827,325c0-0.4,0-0.8,0-1.2"/>
			<path class="st1" d="M758.8,384.9c0,0,34.4,15.5,44.2,24.6s13.6,32.8,12.3,42.9c-1.3,10.1-10.8-24.6-20.5-29.1
				s-36-23.7-38.8-30.6C753.1,385.8,755,383.1,758.8,384.9z"/>
			<path class="st1" d="M767,383c0.9-0.5,30.6-4.2,40.7,1.4c10.1,5.6-7.9-2.3-10.1,3.4s6.9,5.1,3.5,8.5
				C797.7,399.7,762.3,385.5,767,383z"/>
			<path class="st1" d="M857.4,437.9c-0.3-3.5-11.7-35.9-18.9-41.1c-7.3-5.3-2.8-9.8,0-12.4c2.8-2.6,13.8,10.3,16.5,19.8
				C857.7,413.6,857.4,437.9,857.4,437.9z"/>
			<path class="st1" d="M845.9,440.8c0,0-4.3-17.7-5.6-22.7c-1.3-5.1-3.8-10.7-3.8-10.7s16.7,23.4,18.4,30.6
				C856.7,445.2,845.9,440.8,845.9,440.8z"/>
			<path class="st24" d="M771.6,521.4c0-0.1,0-0.1,0-0.2c0,0-11.1,3.7-25.1,7.6c-14,3.9-30.9,7.9-42,8.4
				c-13.3,0.6-26.2-4.6-34.5-8.9c22.9,6.3,44.6,3.2,44.6,3.2s2.4-4.6,2.5-18c0-0.7,0-1.4,0-2c0.2-5.3,0.8-9.1,1.8-11.5
				c9.5,4,24.2,9.3,39,11.9c5.5,1,11,1.6,16.3,1.6C773.5,515.8,772.6,518.5,771.6,521.4z"/>
			<path class="st24" d="M769.4,527.5c-5.5,15-12.7,33.5-17.1,42.3c-7,14.2-9.8,9.4-19.2,9.4c-0.5,0-0.9,0-1.4,0
				c-6.4,0.4-22.5-4.3-38.8-9.9c0,0,0,0,0,0c-10.5-3.6-21.1-7.6-29-10.7c-10.6-4.2-23.8-10.9-33.9-16.1c-2.7-1.4-5.1-2.7-7.2-3.8
				c-5-2.7-8.1-4.4-8.1-4.4s-15.8,2.1-22.7-3s-17.5-8.3-17.5-8.3l-6.3-1.1c-5.1,2.9-9.9-0.4-9.9-0.4l0.2-0.1
				c1.3,0.5,4.2,1.1,8.4-1.5c0,0,8.6,0.3,13,3.2s14.2,9.7,21.5,8.9c7.3-0.8,10.5-3.7,14.6-2.6c1.2,0.3,5.6,2.3,11.6,5.2
				c0.9,0.4,1.8,0.8,2.7,1.3c1,0.5,2.1,1,3.1,1.5c0.7,0.3,1.5,0.7,2.2,1c0,0,0,0,0,0c0,0,0,0,0,0c7.4,3.5,16,7.4,24.1,10.9
				c0.6,0.2,1.2,0.5,1.7,0.7c2.3,1,4.6,1.9,6.7,2.7c0.5,0.2,1,0.4,1.6,0.6c2.3,0.9,4.6,1.7,6.6,2.3c0.3,0.1,0.6,0.2,0.9,0.3
				c0.3,0.1,0.6,0.2,0.9,0.3c19.3,5.7,47.2,21.2,51.3,20.4c4.1-0.8,4.3-6.6,15.6-4.1C745.3,572.3,762.2,545.3,769.4,527.5z"/>
			<path class="st24" d="M582.5,514.7c-1.5,0.8-3.2,1.3-4.3,1.6c0.1-0.1,0.2-0.3,0.3-0.5c0.1-0.5-0.3-1-0.8-1l-12.5-0.2
				c-12,7.6-13.5,1.7-13.5,1.7c1,0.5,3.2,1.1,6.1-0.4c4.1-2.1,7.3-4,7.3-4.3C565.1,511.3,584.8,513.5,582.5,514.7z"/>
			<path class="st10" d="M771.6,521.2c0,0,0,0.1,0,0.2c0,0,0,0,0,0.1c-0.7,1.9-1.4,3.9-2.1,6c-7.2,17.8-24.1,44.8-24.1,44.8
				c-11.4-2.5-11.5,3.3-15.6,4.1c-4.1,0.8-32-14.7-51.3-20.4c-0.3-0.1-0.6-0.2-0.9-0.3c-0.3-0.1-0.6-0.2-0.9-0.3
				c-2-0.7-4.3-1.4-6.6-2.3c-0.5-0.2-1-0.4-1.6-0.6c-2.2-0.8-4.4-1.8-6.7-2.7c-0.6-0.2-1.1-0.5-1.7-0.7c-8.1-3.4-16.7-7.4-24.1-10.9
				c0,0,0,0,0,0c0,0,0,0,0,0c-0.8-0.3-1.5-0.7-2.2-1c-1.1-0.5-2.1-1-3.1-1.5c-0.9-0.5-1.9-0.9-2.7-1.3c-6-2.8-10.4-4.9-11.6-5.2
				c-4.1-1.1-7.4,1.8-14.6,2.6c-7.3,0.8-17-6-21.5-8.9s-13-3.2-13-3.2c-4.2,2.5-7.1,2-8.4,1.5l6.7-4.5l12.1-0.2c0,0,0,0,0,0l0.4,0
				c0.2,0,0.4-0.1,0.6-0.2c1.1-0.3,2.8-0.8,4.3-1.6c2.3-1.2-17.4-3.5-17.4-3.2c0,0.3-3.2,2.2-7.3,4.3c-2.9,1.5-5,0.9-6.1,0.4
				l12.8-9.7l12.6,0.4h0c0.8,0,1.4-0.5,1.6-1.2c0.1-0.5,0-1-0.2-1.3v0c-0.3-3.1-14.6-5.8-14.6-5.8c-2.9,2.6-7.3,3.6-9.5,3.9l10-9.4
				l5.6-0.6c0,0,11.2,5.5,14.7,3c0,0-8.3-3.8-12.4-5.2l4.7-4.4l12,3c0,0,8.4,3.6,14.7,6.7c6.3,3.2,18.3,17.8,18.3,17.8
				s12.6,2.6,33.5,9.9c2.4,0.8,4.8,1.7,7.4,2.6c2.4,0.9,4.8,1.6,7.2,2.3c8.3,4.3,21.2,9.5,34.5,8.9c11.2-0.5,28-4.5,42-8.4
				C760.5,525,771.6,521.2,771.6,521.2z"/>
			<path class="st27" d="M769,288.5c-0.1-0.2-0.1-0.2-0.1-0.2"/>
			<path class="st8" d="M585,677c-0.6-2.2-1.2-4.8-1.8-7.7c7.6,6.1,19.1,15,24.2,16.5C614.9,687.9,602.8,689.7,585,677z"/>
			<path class="st6" d="M618.5,741.2c-13.5,5.8-28.4,11.7-30.7,12.5c-4,1.4-9.5,0.6-13,0c-3.5-0.6-8.4-5.8-8-9.5
				c0.3-3.6-0.3-14.2,6.8-17c7.1-2.9,12.6-1.6,14.5-4.9c1.2-2.2,4.7-4.9,7.3-7.3c1.8,6.5,7.9,12.2,12.3,14.6
				C610.5,731,615,736.5,618.5,741.2z"/>
			<path class="st6" d="M640.1,730.8c-1.7,1.3-5.8,3.3-10.9,5.7c-2.5-3.5-7.9-9.3-7.9-9.3c13.8-1.7,17.1-11.5,17.3-11.9
				C643.6,719.8,645.9,726.5,640.1,730.8z"/>
			<path class="st6" d="M631.9,709.7c-18.1,17.1-32.9,0-32.9,0c0.3-1.1,0.4-2.2,0.4-3.1c14.6,5.5,24.9-0.1,28.8-2.9
				C628.9,705.2,630.1,707.5,631.9,709.7z"/>
			<path class="st4" d="M621.3,727.2c0,0,5.4,5.8,7.9,9.3c-3.2,1.5-6.9,3.1-10.6,4.7c-3.5-4.6-8-10.2-10.8-11.7
				c-4.4-2.3-10.6-8.1-12.3-14.6c1.4-1.3,2.5-2.5,3-3.6c0.3-0.5,0.4-1.1,0.6-1.7c0,0,14.8,17.1,32.9,0c1.1,1.3,2.5,2.7,4.2,3.8
				c0.9,0.6,1.7,1.2,2.4,1.9C638.4,715.7,635.1,725.5,621.3,727.2z"/>
			<path class="st24" d="M718.9,448.2c-0.8,3.9-1.8,8-2.7,11.6c-2.4-0.4-5.4-0.8-7.6-1c-4.3-0.3-11.6,1.3-15.4,0s-9.8-3-15.7-1.2
				c-5.4,1.7-13.4-0.5-13.6-3c1.6,0.8,5.4,2.3,9.2,1.1c4.9-1.6,12.2-3.9,15.8-1.5c3.6,2.4,6.6,4.8,12.3,3.2
				c5.7-1.6,10.6-2.5,13.3-1.9c0,0,2-3,2.5-7.5C717.7,448.2,718.3,448.2,718.9,448.2z"/>
			<path class="st10" d="M717,448.1c-0.5,4.5-2.5,7.5-2.5,7.5c-2.6-0.6-7.6,0.3-13.3,1.9c-5.7,1.6-8.7-0.8-12.3-3.2
				c-3.6-2.4-10.9-0.1-15.8,1.5c-3.7,1.2-7.6-0.3-9.2-1.1c0-0.2,0-0.5,0.2-0.8c1.6-2.8,7.5-4.5,13.4-4.2c5.9,0.3,9.8-2.1,9.8-2.1
				l1.4-0.5c0.9-0.3,1-1.6,0.2-2.1c-3.7-2.2-11.4-6.4-14.4-6.3l-5.5,3c0,0-2.3,3.5-5.8,4.4c-0.7-0.1-1.1-0.2-1.1-0.2l5-6.1l8.5-4.5
				c0.5-0.3,1.1-0.3,1.6-0.2c3.6,1,17.7,5.2,26.1,9.1C708.4,446.7,713.5,447.7,717,448.1z"/>
			<path class="st24" d="M688.6,447.1l-1.4,0.5c-2.7-3.2-11.7-6-11.7-6s-1.3-0.7-5,2.4c-2.6,2.2-5.8,2.2-7.5,2.1
				c3.5-0.9,5.8-4.4,5.8-4.4l5.5-3c3-0.1,10.6,4.1,14.4,6.3C689.7,445.5,689.5,446.8,688.6,447.1z"/>
			<path class="st28" d="M666.1,452.5l2.8-0.1c1,0,1.8,0.7,1.8,1.7l0,0c0,1-0.8,1.8-1.8,1.7l-2.8-0.1"/>
			<path class="st28" d="M665.5,442.1c0,0,1.1,0.5,0.2,1.6s-1.5,1.7-1.5,1.7"/>
			<path class="st24" d="M584.7,495.6c-3.6,2.5-14.7-3-14.7-3l2.3-2.2C576.4,491.8,584.7,495.6,584.7,495.6z"/>
			<path class="st24" d="M578.6,504.4c-0.3-0.4-0.7-0.7-1.2-0.8c-4-0.4-12.6-1.4-13.4-1c-6.1,2.4-10.8,1.2-10.8,1.2l1.3-1.2h0
				c2.2-0.3,6.7-1.3,9.5-3.9C563.9,498.7,578.2,501.3,578.6,504.4z"/>
			<path class="st4" d="M785.6,604.8c-3,7.8-9.3,15.6-22.5,13.8c-20.9-2.8-99.5-20.2-124-25.7c-4.3-1-6.8-5.5-5.2-9.7
				c4-10.5,14.9-26.7,42.5-18.5c5,1.5,10.7,3.1,16.6,4.6c0,0,0,0,0,0c12.6,3.3,26.7,6.7,40.2,9.8c17.3,4,33.5,7.5,43.8,9.7
				c2.8,0.6,5.1,2.1,6.8,4.1C786.3,596.1,787.2,600.6,785.6,604.8z"/>
			<path class="st22" d="M901.9,453.2l-11.7,53.7c-1.9,8.6-7.7,15.7-15.7,19.3c-9.1,4-21.5,9.5-31.6,13.8c-4,1.7-8.1,1-11.2-1.3l0,0
				l-0.1-0.1c-3.1-2.3-5-6.1-4.5-10.4l3.7-32.9c2.6-23.3,18.6-42.9,40.9-50.2l15.5-5.1c3.3-1.1,6.7-0.6,9.3,1l0.2,0.2
				C900.7,443.5,903.1,448.1,901.9,453.2z"/>
			<line class="st27" x1="132.6" y1="562.3" x2="132.6" y2="562"/>
			<path class="st14" d="M754.4,314c-0.1,0.2-0.2,0.4-0.3,0.6c-2.5,4.4-6.9,12-10.5,15.9c-0.7,0.8-1.4,1.4-2,1.9
				c-5.4,4-17.7-4-19.4-14c-1.4-8-1.3-20.9-1.2-25.9c0-1.2,0.8-2.2,1.9-2.5c0.3-0.1,0.5-0.1,0.8-0.1c0.8,0.1,1.5,0.4,1.7,1.4
				c0,0-2.2-1.3-2.2,6.3c0.1,7.5,1.2,19.5,10,21c7.7,1.3,15-11.1,16.9-15.7c1.7,2.8,3,4.6,3.9,5.9
				C755.2,310.3,755.3,312.4,754.4,314z"/>
			<path class="st29" d="M798.3,450.3c-1.7,19.5-5.9,68.6-6.2,87c-0.4,23.3-23.6,56.5-58.1,51.1c-26.4-4.2-86.1-18.9-112.5-26.1
				l19.3-14.8c6.9,3.8,14.3,7.7,23.1,11.2c20,8,57.3,21.3,67.8,20.6c10.5-0.6,13.3,5.5,20.6-9.5c4.4-8.9,11.6-27.3,17.1-42.3
				c0.8-2.1,1.5-4.1,2.2-6c0,0,0,0,0-0.1c1-2.9,1.9-5.6,2.7-7.9c0,0,6.1,0.1,9,0C783.3,513.5,795.2,471.5,798.3,450.3z"/>
			<path class="st29" d="M695.3,505.8"/>
			<path class="st1" d="M820.4,341.6c-3.7,4.2-23.5,5.7-30.9,10.3c-7.4,4.6-34.5,22.3-34.5,22.3l-1.9-7c-0.1-0.2-0.1-0.4-0.1-0.7
				c7.9-6.7,33.8-25.3,41.2-23.9C802.9,344.3,824.1,337.4,820.4,341.6z"/>
			<path class="st4" d="M896.5,440.9c-2.7-1.6-6-2.1-9.3-1l-15.5,5.1c-22.3,7.3-38.2,27-40.9,50.2l-3.7,32.9
				c-0.5,4.3,1.5,8.1,4.5,10.4l-11.5-7.5c-4.5-1.8-7.8-6.4-7.2-11.9l3.7-32.9c2.6-23.3,18.6-42.9,40.9-50.2l15.5-5.1
				c3.6-1.2,7.2-0.5,10,1.4L896.5,440.9z"/>
			<path class="st1" d="M798,352.3c-3.5,1.1-6.6,2.6-10,5.4c-9,7.3-32,19.9-32,19.9c-11.7,4.4-19.3,14.5-19.3,14.5
				c-12.6,7-13.6,31.3-14.8,39.8c-0.6,4-1.7,10-3,16.3c-0.8,3.9-1.8,8-2.7,11.6c-0.8,3.1-1.7,5.8-2.5,8.1c-1.8,4.8-1.7,8-1.2,10.8
				c0.5,2.5,1.2,4.8,1.2,7.8c0,6.3-5.1,8.5-5.1,8.5l0.4,0.3l3.4,3.4c0,0-1.3,10.4-2.2,10.4c0,0,1,0.5,2.4,1c0.1,3.2,0.8,21.1,2,21.2
				c0,0,2.5-3.7,2.5-20c0.2-5.3,0.8-9.1,1.8-11.5c9.5,4,24.2,9.3,39,11.9c5.5,1,11,1.6,16.3,1.6c0,0-50.1-25.7-30.6-23.4
				c19.4,2.2,41.9-2.8,25.4-10.8c-8.1-3.9-17.6-8-23.6-11.7c-6.1-3.8-8.5-7.1-1.8-9.6c9.7-3.6,16.6-11,18.5-17.2
				c0.7-2.2,0.7-4.2,0.1-5.8c-2.5-6.2-0.2-32,17.3-21.1C794.8,423.5,806.6,365,798,352.3z"/>
			<path class="st30" d="M714.1,587c-19.3-4.1-38.5-8.1-57.8-12.2c-0.6-0.1-2.1,1.1-1.3,1.3c19.3,4.1,38.5,8.1,57.8,12.2
				C713.4,588.3,715,587.1,714.1,587z"/>
			<path class="st30" d="M745.5,596.5c-2.1-1.4-4.5-2.1-6.9-2c-0.5,0-1,0.3-1.2,0.7c-0.2,0.3-0.1,0.6,0.3,0.6c2.2,0,4.4,0.6,6.3,1.9
				C744.5,598,746.1,596.9,745.5,596.5z"/>
			<path class="st30" d="M850.2,455.8c-0.4-0.2-1,0.3-1.3,0.5c-9.9,9.4-16.3,22.2-17.9,35.7c-0.5,3.9-0.5,7.8-0.2,11.7
				c0.1,0.7,1.9-0.1,1.8-0.7c-1.5-17.1,5.1-34.6,17.6-46.4C850.4,456.2,850.5,455.9,850.2,455.8z"/>
			<path class="st30" d="M854.5,580.3c-1.3,9.5-2.6,18.9-3.9,28.4c-0.1,0.6,1.7,0,1.8-0.7c1.3-9.5,2.6-18.9,3.9-28.4
				C856.4,579,854.5,579.6,854.5,580.3z"/>
			<path class="st30" d="M833.5,641.1c-11.4,5.8-24.3,8.3-37,7.4c-0.5,0-1,0.2-1.3,0.5c-0.2,0.2-0.5,0.7,0,0.8
				c13.4,0.9,26.8-1.8,38.7-7.9C835.1,641.4,834.6,640.5,833.5,641.1z"/>
			<path class="st30" d="M848.5,633.3c-0.6,0-2,1.3-0.9,1.3C848.2,634.6,849.6,633.3,848.5,633.3z"/>
			<path class="st30" d="M715.1,644.5c-12.9-3.2-25.9-6.4-38.8-9.6c-0.6-0.1-2.1,1.1-1.3,1.3c12.9,3.2,25.9,6.4,38.8,9.6
				C714.4,645.9,716,644.7,715.1,644.5z"/>
			<path class="st6" d="M654.6,744.2c-0.5-0.4-2.2,0.8-1.6,1.2c3.8,2.6,6.3,7,6.3,11.6c0.1,4.7-2.4,9.3-6.5,11.7
				c-1,0.6-0.6,1.5,0.5,0.8c4.3-2.6,7.4-7.1,7.8-12.2C661.6,752.1,658.9,747,654.6,744.2z"/>
			<path class="st6" d="M643.1,754.8c0-0.1-0.3-0.2-0.4-0.2c-0.2,0-0.5,0.1-0.7,0.2c-0.3,0.2-0.7,0.5-0.6,0.9
				c0.3,1.3,0.6,2.5,0.9,3.8c0,0.1,0.3,0.2,0.4,0.2c0.2,0,0.5-0.1,0.7-0.2c0.3-0.2,0.7-0.5,0.6-0.9
				C643.7,757.3,643.4,756.1,643.1,754.8z"/>
			<path class="st6" d="M673.2,678c-3.3,0.4-6.4,2.5-8,5.5c-0.2,0.4,0.4,0.5,0.6,0.4c0.5-0.1,0.9-0.4,1.1-0.8c0.3-0.5,0.6-1,1-1.4
				c0.5-0.5,0.8-0.8,1.3-1.2c0.1,0,0.1-0.1,0.2-0.1c0,0,0,0,0,0c0,0,0,0,0,0c0.1-0.1,0.3-0.2,0.4-0.2c0.1,0,0.1-0.1,0.2-0.1
				c0,0,0,0,0.1,0c0,0,0,0,0,0c0.1-0.1,0.3-0.1,0.4-0.2c0.5-0.2,1.1-0.4,1.7-0.4c0.5-0.1,1-0.3,1.2-0.7
				C673.8,678.3,673.6,677.9,673.2,678z"/>
			<path class="st6" d="M838,686.3c-0.5,0-1,0.3-1.2,0.7c-0.2,0.3-0.1,0.6,0.3,0.6c3.6-0.4,7,3.6,6.1,7.2c-0.2,0.9,1.6,0.2,1.7-0.4
				C846.1,690.2,842.3,685.9,838,686.3z"/>
			<path class="st6" d="M746.7,669.4v7.6c0,0.7,1.8,0,1.8-0.7v-7.6C748.5,668,746.7,668.7,746.7,669.4z"/>
			<path class="st6" d="M814.8,314.5c-10.7-4.3-19.7-12.5-24.9-22.8c-0.6-1.1-2.3-0.1-1.7,1c5.5,10.8,14.9,19.2,26.1,23.7
				C815.5,316.9,816,315,814.8,314.5z"/>
			<path class="st6" d="M830.7,314.8c-0.2-0.5-0.7-0.9-1.2-0.7c-0.3,0.1-0.6,0.2-0.9,0.3c-0.1,0-0.3,0.1-0.4,0.1c-0.1,0-0.1,0-0.2,0
				c0,0-0.1,0-0.1,0c-0.6,0.1-1.3,0.1-1.9,0c-0.2,0-0.5,0.1-0.7,0.3c-0.2,0.2-0.3,0.5-0.3,0.7c0,0.3,0.1,0.5,0.3,0.7
				c0.2,0.2,0.4,0.3,0.7,0.3c1.4,0.2,2.8,0,4.1-0.4C830.5,315.8,830.8,315.3,830.7,314.8z"/>
			<path class="st1" d="M788.4,406.9c-2.4-3.1-5.2-6-8.2-8.6c-1-0.8-2.4,0.6-1.4,1.4c10.3,8.8,17.3,21,19.8,34.3
				c0.7,3.8,1,7.7,1,11.6c0,1.3,2,1.3,2,0C801.7,431.6,797,417.8,788.4,406.9z"/>
			<path class="st1" d="M761.2,390.8c-3.7-2.6-7.8-4.6-12-6c-1.2-0.4-1.8,1.5-0.5,1.9c4.1,1.3,8,3.3,11.6,5.8
				c0.4,0.3,1.1,0.1,1.4-0.4C761.8,391.6,761.6,391.1,761.2,390.8z"/>
			<path class="st1" d="M769.1,394c-1.3,0-1.3,2,0,2C770.4,396,770.4,394,769.1,394z"/>
			<path class="st6" d="M773.7,510.3c-17.5,0.5-35-2.7-51.2-9.3c-4.7-1.9-9.2-4.1-13.6-6.6c-1.1-0.6-2.1,1.1-1,1.7
				c15.5,8.8,32.9,14.1,50.7,15.7c5,0.5,10.1,0.6,15.1,0.4C775,512.3,775,510.3,773.7,510.3z"/>
			<path class="st1" d="M762.1,399c-4.8,4.6-7.8,10.7-9.3,17.2c-0.7,3.3-1.1,6.7-1,10.1c0,3.7,0.4,7.6-0.9,11.2
				c-1.8,5-7,7.6-11.3,10.1c-4.1,2.4-8.5,5-10.3,9.7c-2.3,6,1.8,13.2,8.1,14.6c1.3,0.3,1.8-1.6,0.5-1.9c-5.5-1.2-8.8-7.7-6.4-12.8
				c2-4.2,6.5-6.4,10.4-8.6c4.1-2.3,8.4-4.9,10.5-9.3c1.4-3,1.5-6.4,1.5-9.7c0-3.3-0.1-6.6,0.4-9.9c1.1-7.2,4-14.1,9.3-19.2
				C764.4,399.5,763,398.1,762.1,399z"/>
			<path class="st1" d="M739.6,481.6c-2.2,2.1-5.4,3.6-6.8,6.5c-1.2,2.4-1.2,5.6,1.3,7.3c1.1,0.7,2.1-1,1-1.7
				c-1.7-1.1-1.1-3.8-0.2-5.2c0.7-1.1,1.8-1.9,2.8-2.7c1.1-0.9,2.3-1.7,3.4-2.7C741.9,482.1,740.5,480.7,739.6,481.6z"/>
			<path class="st20" d="M840.9,571.2c-10.5,10.7-24.2,18-38.9,20.9c-4.2,0.8-8.4,1.2-12.6,1.3c-1.3,0-1.3,2,0,2
				c15.4-0.3,30.6-5.3,43.1-14.3c3.5-2.5,6.8-5.4,9.9-8.5C843.2,571.7,841.8,570.3,840.9,571.2z"/>
			<path class="st6" d="M831.8,257c0-1.1-1.3-1.3-1.9-0.5c-0.2,0.3-0.4,0.5-0.6,0.8c0-0.3,0-0.7-0.1-1c0-0.5-0.4-1-1-1
				c-0.5,0-1,0.5-1,1c0.2,1.9,0.2,3.8,0.1,5.6c-0.3,1.3-0.5,2.6-0.4,3.9c0,0.5,0.4,0.9,0.9,1c0.5,0.1,1-0.2,1.1-0.7
				c0.2-1.2,0.3-2.5,0.4-3.7c0.2-0.6,0.4-1.2,0.6-1.8c0,0.1,0,0.1,0,0.2c0.1,1.3,2.1,1.3,2,0C832,259.5,831.9,258.2,831.8,257z"/>
			<path class="st6" d="M808.5,195.4c-0.8-0.2-1.7-0.4-2.5-0.7c-0.3-0.1-0.5,0-0.8,0.1c-0.2,0.1-0.4,0.4-0.5,0.6
				c-0.1,0.5,0.2,1.1,0.7,1.2c0.8,0.2,1.7,0.4,2.5,0.7c0.3,0.1,0.5,0,0.8-0.1c0.2-0.1,0.4-0.4,0.5-0.6
				C809.3,196.1,809,195.6,808.5,195.4z"/>
			<path class="st6" d="M629.6,721.1c-4.4,2.1-9.5,2.8-14.4,2c-0.5-0.1-1.1,0.1-1.2,0.7c-0.1,0.5,0.2,1.1,0.7,1.2
				c5.4,0.8,10.9,0.1,15.9-2.2C631.7,722.3,630.7,720.6,629.6,721.1z"/>
			<path class="st6" d="M622.2,425.9c-0.2-0.5-0.7-0.9-1.2-0.7c-1.3,0.4-2.5,0.8-3.8,1.3c-0.5,0.2-0.9,0.7-0.7,1.2
				c0.2,0.5,0.7,0.9,1.2,0.7c1.3-0.4,2.5-0.8,3.8-1.3C622,427,622.4,426.5,622.2,425.9z"/>
			<path class="st6" d="M351.6,465.9c-2.9-7.6-6.4-14.9-10.4-22c-0.6-1.1-2.4-0.1-1.7,1c3.9,6.9,7.3,14.1,10.2,21.6
				C350.1,467.6,352,467.1,351.6,465.9z"/>
			<path class="st6" d="M356.1,474.4l-1.3-3.3c-0.1-0.3-0.2-0.5-0.5-0.6c-0.2-0.1-0.5-0.2-0.8-0.1c-0.2,0.1-0.5,0.2-0.6,0.5
				c-0.1,0.2-0.2,0.5-0.1,0.8l1.3,3.3c0.1,0.3,0.2,0.5,0.5,0.6c0.2,0.1,0.5,0.2,0.8,0.1c0.2-0.1,0.5-0.2,0.6-0.5
				C356.1,474.9,356.2,474.6,356.1,474.4z"/>
			<path class="st6" d="M975.3,150.2c-9.8-23.1-23.4-44.5-40.2-63.2c-9.4-10.5-19.9-20.2-31.1-28.7c-1-0.8-2,1-1,1.7
				c19.8,15,36.9,33.4,50.6,54.1c13.7,20.7,24,43.5,30.4,67.5c3.6,13.5,5.9,27.3,6.8,41.3c0.1,1.3,2.1,1.3,2,0
				C991.2,197.8,985.1,173.2,975.3,150.2z"/>
			<path class="st6" d="M819.4,44.1c-15.4,3.7-30.4,8.7-44.9,14.9c-4.1,1.8-8.2,3.7-12.3,5.6c-1.2,0.6-0.1,2.3,1,1.7
				c14.1-6.9,28.8-12.6,43.9-16.9c4.3-1.2,8.5-2.4,12.8-3.4C821.2,45.7,820.7,43.8,819.4,44.1z"/>
			<path class="st6" d="M863.4,45.8c-5.7-0.8-11.3-1.6-17-2.3c-1.3-0.2-1.8,1.8-0.5,1.9c5.7,0.8,11.3,1.6,17,2.3
				C864.1,47.9,864.7,46,863.4,45.8z"/>
			<path class="st6" d="M291.9,57.1c-32.3,7.5-65.1,15.1-95,29.8c-14.2,6.9-27.7,15.4-39.4,26.1c-11.1,10-20.6,21.8-27.8,35
				c-7,12.7-11.7,26.7-12.9,41.2c-1.3,14.7,1.6,29.1,7,42.8c5.3,13.6,12.5,26.4,18.9,39.6c6.3,12.9,12.1,26.6,13.3,41.1
				c1.2,14.5-2.8,28.6-10.6,40.8c-8.1,12.6-19.6,22.8-31.9,31.1c-3,2-6,3.9-9.1,5.7c-1.1,0.7-0.1,2.4,1,1.7
				c24.2-14.2,48.3-36,52.2-65.3c3.9-29.2-13.3-55.4-25.4-80.5c-6.4-13.2-12-27.1-13.4-41.9c-1.3-14.6,1.3-29.3,6.7-42.9
				c11.5-28.8,34.4-51.6,61.1-66.8c29.1-16.6,61.8-25.2,94.1-32.8c3.9-0.9,7.9-1.8,11.8-2.7C293.7,58.7,293.1,56.8,291.9,57.1z"/>
			<path class="st31" d="M332.7,802.8c-21.8-1.9-43.4-5.7-64.6-11.2c-21.2-5.5-41.9-12.8-61.9-21.7c-19.9-8.8-39.1-19.3-57.3-31.1
				c-18.3-11.9-35.7-25.3-51.9-40.1C80.9,684,66,668,52.5,650.8c-1.7-2.2-3.4-4.3-5-6.5c-0.8-1-2.5,0-1.7,1
				c13.2,17.6,27.8,34.1,43.8,49.2c15.9,15.1,33.1,29,51.3,41.3c18.2,12.4,37.5,23.3,57.5,32.7c19.9,9.3,40.6,17,61.7,23
				c21.2,6,42.8,10.2,64.7,12.5c2.7,0.3,5.3,0.5,8,0.8C334,804.9,334,802.9,332.7,802.8z"/>
			<path class="st31" d="M406.8,817c-9.5-1.9-18.9-3.8-28.4-5.7c-1.3-0.3-1.8,1.7-0.5,1.9c9.5,1.9,18.9,3.8,28.4,5.7
				C407.5,819.2,408,817.3,406.8,817z"/>
			<path class="st31" d="M1099.9,565.6c-0.3-13.4-2.1-26.7-5.4-39.6c-0.3-1.2-2.2-0.7-1.9,0.5c5.9,22.9,6.9,46.9,3.4,70.3
				c-3.5,23.3-11.4,45.9-23.3,66.2c-6.7,11.4-14.7,22.1-23.8,31.7c-0.9,0.9,0.5,2.3,1.4,1.4c16.5-17.4,29.2-38.1,37.6-60.4
				C1096.3,613.3,1100.5,589.4,1099.9,565.6z"/>
			<path class="st31" d="M1070.2,472.6c-2.5-3.8-5-7.6-7.5-11.4c-0.7-1.1-2.4-0.1-1.7,1l7.5,11.4
				C1069.2,474.7,1071,473.7,1070.2,472.6z"/>
			<path class="st31" d="M992.3,357.3c-5.9-14.3-8.4-29.8-7.2-45.2c0.3-4.5,1-8.9,2-13.3c0.3-1.3-1.7-1.8-1.9-0.5
				c-3.4,15.4-3.1,31.5,0.9,46.8c1.1,4.3,2.6,8.6,4.3,12.8C990.9,359.1,992.8,358.5,992.3,357.3z"/>
		</g>
		<path class="st32" d="M745.6,146.1c-0.4-3.4-2.2-6.3-5-8.3c-2.7-2-6-3-9.3-3.6c-4.1-0.9-8.4-1.3-12.6-1.6
			c-17.8-1.2-35.6,2.2-52.5,7.4c-15.2,4.7-30,10.8-44.1,18.1c-13.7,7.1-26.8,15.3-39,24.8c-12.2,9.4-23.5,20.1-33.5,31.8
			c-4.9,5.8-10.6,12.1-12.9,19.5c-1.9,6.3-0.1,13.2,5.9,16.6c5.2,3,11.8,2.8,17.5,2c3.4-0.5,6.8-1.4,10.2-2.3c4-1.1,8-2.2,12-3.4
			c15.9-4.9,31.5-11,46.5-18.3c15.1-7.3,29.6-15.7,43.4-25.1c3.2-2.2,6.3-4.4,9.4-6.7c13.3,10.9,26.6,21.7,39.9,32.6
			c1,0.8,2.4-0.6,1.4-1.4c-1.1-0.9-2.2-1.8-3.3-2.7c0-0.1,0-0.1,0-0.2c-3.3-13-7.4-25.7-12.5-38.1c7-3.6,13.6-8,19.6-13.1
			c3.1-2.6,6.1-5.4,8.9-8.4c2.7-2.8,5.3-5.8,7.2-9.2C744.7,153.3,746,149.7,745.6,146.1z M740.9,155.9c-1.9,3.3-4.5,6.1-7.2,8.9
			c-5.5,5.7-11.6,10.8-18.2,15.1c-3.2,2.1-6.6,4-10,5.8c-0.4,0.2-0.6,0.7-0.5,1.1c4.9,11.9,8.9,24,12.2,36.5
			c-11.6-9.5-23.1-18.9-34.7-28.4c-0.3-0.3-0.8-0.4-1.2-0.2c-12.9,9.6-26.5,18.2-40.6,25.8c-14.1,7.6-28.8,14.2-43.9,19.6
			c-7.6,2.7-15.2,5.2-22.9,7.3c-6.5,1.8-13,3.7-19.8,3.7c-5.4,0-11.6-1.4-14.5-6.5c-3.9-7.1,1.1-15.2,5.3-20.8
			c8.9-11.8,19.4-22.5,30.6-32.1c11.3-9.7,23.6-18.3,36.5-25.8c12.9-7.5,26.4-13.8,40.3-19.1c15.8-6,32.3-10.7,49.2-12.2
			c8.5-0.7,17.2-0.6,25.7,0.7c6.2,1,14.9,2.7,16.4,10C744.2,149.1,742.7,152.8,740.9,155.9z"/>
		<path class="st32" d="M609.5,218.3c-5.9-1.2-11.9-2-17.9-2.5l10.7-11.4c0.9-0.9-0.5-2.4-1.4-1.4c-3.4,3.6-6.8,7.3-10.3,10.9
			c-0.5-4.7-1.1-9.5-1.9-14.2c-0.2-1.3-2.2-0.7-1.9,0.5c0.9,5,1.6,10,2,15c-2.6-3.3-5.1-6.5-7.7-9.8c-0.8-1-2.2,0.4-1.4,1.4
			c2.3,2.9,4.5,5.7,6.8,8.6c-4.6-0.2-9.2-0.3-13.8-0.1c-1.3,0-1.3,2,0,2c4.9-0.2,9.7-0.1,14.6,0.2c-3.8,4-7.6,8.1-11.4,12.1
			c-0.9,0.9,0.5,2.4,1.4,1.4c3.9-4.1,7.8-8.3,11.7-12.4l0.1,0.2c0.4,5.9,0.5,11.9,0.3,17.8c0,1.3,2,1.3,2,0c0.2-5,0.1-10.1-0.1-15.1
			c2.6,3.3,5.2,6.6,7.8,10c0.8,1,2.2-0.4,1.4-1.4l-9.5-12c0-0.1,0-0.2,0-0.3c6,0.5,12,1.3,17.9,2.5
			C610.3,220.5,610.8,218.6,609.5,218.3z"/>
		<path class="st32" d="M634.8,192.7c-4.5-5.8-11.8-10.1-19.3-7.6c-2.9,1-5.3,2.9-6.7,5.6c-0.1,0.1-0.2,0.3-0.2,0.5
			c-0.2,0.5-0.4,1.1-0.6,1.6c-0.8,3.4,0,7.3,2.7,9.7c0.6,0.5,1.3,0.2,1.6-0.3c1.6,3.4,3.8,6.5,6.9,8.9c4.5,3.3,11.6,3.9,16.3,0.5
			c2.5-1.8,3.9-4.7,3.8-7.9C639.4,199.6,637.2,195.8,634.8,192.7z M609.8,195.2c0.5,1.7,1.1,3.5,1.9,5.2
			C610.4,199,609.8,197.1,609.8,195.2z M634.6,209.8c-3.9,2.9-9.9,2.5-13.8-0.1c-5.9-4-8.2-11.7-10-18.2c1-1.9,2.6-3.4,4.7-4.2
			c6.4-2.6,13,0.9,17.1,5.8C636.2,197.3,640.4,205.4,634.6,209.8z"/>
		<path class="st32" d="M671.3,179.2c-4.4,0.4-8.7,0.8-13.1,0.9c-0.5-1.9-1-3.7-1.4-5.6h5.6c1.3,0,1.3-2,0-2h-6.2
			c-1.4-5.6-2.9-11.3-4.3-16.9c-0.3-1.2-2.2-0.7-1.9,0.5c1.4,5.5,2.8,10.9,4.2,16.4H648c-1.3-3.9-2.5-7.9-3.8-11.8
			c-0.4-1.2-2.3-0.7-1.9,0.5c1.2,3.8,2.4,7.5,3.6,11.3h-12.5c-1.3,0-1.3,2,0,2h13.2c0.6,1.9,1.2,3.9,1.9,5.8
			c-4.2,0-8.3-0.1-12.5-0.4c-1.3-0.1-1.3,1.9,0,2c4.4,0.3,8.8,0.4,13.2,0.4c1.4,4.4,2.8,8.7,4.2,13.1c0.4,1.2,2.3,0.7,1.9-0.5
			c-1.3-4.2-2.7-8.4-4-12.6c1.8,0,3.7-0.1,5.5-0.1c1.1,4.4,2.2,8.7,3.4,13.1c0.3,1.2,2.2,0.7,1.9-0.5c-1.1-4.2-2.2-8.4-3.2-12.7
			c4.2-0.2,8.4-0.5,12.6-0.9C672.5,181,672.6,179,671.3,179.2z M650.5,180.3c-0.6-1.9-1.2-3.9-1.9-5.8h6.1c0.5,1.9,1,3.8,1.5,5.7
			C654.3,180.3,652.4,180.3,650.5,180.3z"/>
		<path class="st32" d="M704.9,166.4c-3.2-3-6.3-5.9-9.5-8.9c1.6,0.1,3.3,0.1,4.9,0.2c1.3,0,1.3-2,0-2c-2.4-0.1-4.7-0.2-7.1-0.3
			c-0.3-0.3-0.6-0.6-0.9-0.9c2.4-2.5,4.6-5.2,6.6-8.2c0.7-1.1-1-2.1-1.7-1c-1.9,2.8-4,5.4-6.3,7.8c-1.3-1.2-2.5-2.4-3.8-3.6
			c-0.4-3-0.8-5.9-1.1-8.9c-0.2-1.3-2.2-1.3-2,0c0.3,2.2,0.6,4.5,0.9,6.7c-1.7-1.6-3.5-3.3-5.2-4.9c-0.9-0.9-2.4,0.5-1.4,1.4l7,6.6
			c0.2,1.5,0.4,3,0.6,4.6c-5.2-0.2-10.5-0.4-15.7-0.6c-1.3,0-1.3,2,0,2c5.3,0.2,10.7,0.4,16,0.6c0,0.1,0,0.3,0.1,0.4
			c-3.8,3.2-8,5.8-12.6,7.9c-1.2,0.5-0.2,2.3,1,1.7c4.2-2,8.2-4.4,11.9-7.3c0.8,5.8,1.5,11.7,2.3,17.5c0.2,1.3,2.2,1.3,2,0
			c-0.8-6.3-1.6-12.7-2.5-19c0.4-0.4,0.9-0.7,1.3-1.1c1,0,2,0.1,2.9,0.1l11.1,10.4C704.4,168.7,705.8,167.3,704.9,166.4z
			 M688.7,155.2c-0.3,0-0.6,0-0.9,0c-0.1-0.8-0.2-1.7-0.3-2.5l2,1.9C689.1,154.8,688.9,155,688.7,155.2z"/>
		<path class="st32" d="M721.2,153.8c-1.5-1.6-1.1-4-0.9-6c0.2-2.1,0.3-4.3-0.7-6.2c-1.7-3-5.7-4.1-8.9-3.4
			c-1.9,0.4-3.6,1.6-4.4,3.3c-0.6,1.1,1.1,2.2,1.7,1c1.3-2.6,4.7-3.1,7.2-2.1c1.2,0.4,2.3,1.3,2.9,2.5c0.8,1.7,0.4,3.9,0.2,5.7
			c-0.2,2.3-0.1,4.7,1.6,6.5C720.7,156.2,722.1,154.8,721.2,153.8z"/>
		<path class="st32" d="M728.8,161.4c-0.2-0.2-0.4-0.3-0.7-0.3h-1.3c-0.3,0-0.5,0.1-0.7,0.3c-0.1,0.1-0.2,0.2-0.2,0.3
			c-0.1,0.1-0.1,0.2-0.1,0.4c0,0.3,0.1,0.5,0.3,0.7c0.2,0.2,0.4,0.3,0.7,0.3h1.3c0.3,0,0.5-0.1,0.7-0.3c0.1-0.1,0.2-0.2,0.2-0.3
			c0.1-0.1,0.1-0.2,0.1-0.4C729.1,161.9,729,161.6,728.8,161.4z"/>
		<path class="st7" d="M871.3,129.3c-5.2-7.1-13.1-11.8-21.6-13.8c-9.7-2.2-20.2-0.9-28.6,4.6c-1.1,0.7-0.1,2.4,1,1.7
			c14.9-9.7,37.2-5.8,47.7,8.7c3.1,4.3,5.4,9.9,4.6,15.3c-0.8,5.6-5.2,9.3-9.8,12.1c-4.9,3-10.3,5.1-16,6.3
			c-5.7,1.2-11.4,1.3-17.2,0.9c-4.6-0.3-11.3-0.2-12.8,5.2c-0.9,3.2,0.6,8.3,4.8,7.8c1.3-0.2,1.3-2.2,0-2c-3.7,0.5-3.7-5.4-1.7-7.3
			c2-1.8,5.1-1.9,7.7-1.8c2.8,0.1,5.5,0.4,8.3,0.4c11.1,0,22.8-3.5,31.6-10.3c4.2-3.3,7.1-7.7,7.2-13.2
			C876.6,138.7,874.4,133.5,871.3,129.3z"/>
		<path class="st7" d="M830.4,190.5c-1.3,0-2.5,0-3.8,0c-0.5,0-1,0.5-1,1c0,0.5,0.4,1,1,1c1.3,0,2.5,0,3.8,0c0.5,0,1-0.5,1-1
			C831.4,191,831,190.5,830.4,190.5z"/>
		<path class="st7" d="M263.9,230h-28.4c-1.3,0-1.3,2,0,2h28.4C265.2,232,265.2,230,263.9,230z"/>
		<path class="st7" d="M262.3,198.2c-10.2-7.2-18.9-16.2-25.8-26.6c-0.7-1.1-2.4-0.1-1.7,1c7.1,10.7,16.1,19.9,26.5,27.3
			C262.3,200.7,263.3,199,262.3,198.2z"/>
		<path class="st7" d="M283.7,183.1c-7.7-11.6-13.5-24.2-17.2-37.6c-0.3-1.2-2.3-0.7-1.9,0.5c3.8,13.5,9.7,26.4,17.4,38.1
			C282.6,185.2,284.4,184.2,283.7,183.1z"/>
		<path class="st32" d="M563.7,480.4c-7.1-4.7-12.7-11.2-16.5-18.8c-0.6-1.2-2.3-0.1-1.7,1c3.9,7.9,9.9,14.6,17.2,19.5
			C563.7,482.8,564.7,481.1,563.7,480.4z"/>
		<path class="st32" d="M564.1,456.5v17.1c0,1.3,2,1.3,2,0v-17.1C566.1,455.2,564.1,455.2,564.1,456.5z"/>
		<path class="st32" d="M583.3,465.5c-0.4-0.4-1.1-0.4-1.4,0c-2.6,3.1-5.2,6.2-7.8,9.3c-0.3,0.4-0.4,1,0,1.4c0.4,0.4,1.1,0.4,1.4,0
			c2.6-3.1,5.2-6.2,7.8-9.3C583.6,466.5,583.7,465.9,583.3,465.5z"/>
		<path class="st32" d="M657,730.9c-2.1-9.8-7.6-18.8-15.4-25.1c-1-0.8-2.4,0.6-1.4,1.4c7.6,6.1,12.9,14.7,14.9,24.2
			C655.4,732.7,657.3,732.2,657,730.9z"/>
		<path class="st32" d="M662.6,721.2l-6.8-13.6c-0.6-1.2-2.3-0.1-1.7,1c2.3,4.5,4.6,9.1,6.8,13.6
			C661.4,723.4,663.1,722.4,662.6,721.2z"/>
	</g>
</g>
</svg>
